<svg width="11" height="11" viewBox="0 0 11 11" fill="none" xmlns="http://www.w3.org/2000/svg">
<path d="M4.6198 7.40398V3.47998H5.7718V7.40398H4.6198ZM5.2078 3.04798C5.0238 3.04798 4.8718 3.00398 4.7518 2.91598C4.6318 2.82798 4.5718 2.68798 4.5718 2.49598C4.5718 2.27998 4.6318 2.13598 4.7518 2.06398C4.8718 1.98398 5.0238 1.94398 5.2078 1.94398C5.3678 1.94398 5.5078 1.98398 5.6278 2.06398C5.7558 2.13598 5.8198 2.27998 5.8198 2.49598C5.8198 2.69598 5.7558 2.83998 5.6278 2.92798C5.5078 3.00798 5.3678 3.04798 5.2078 3.04798ZM5.1958 10.392C4.4758 10.392 3.7998 10.256 3.1678 9.98398C2.5438 9.71998 1.9918 9.35198 1.5118 8.87998C1.0398 8.39998 0.667801 7.84798 0.395801 7.22398C0.131801 6.59198 -0.000199199 5.91598 -0.000199199 5.19598C-0.000199199 4.47598 0.131801 3.80398 0.395801 3.17998C0.667801 2.54798 1.0398 1.99598 1.5118 1.52398C1.9918 1.04398 2.5438 0.67198 3.1678 0.40798C3.7998 0.13598 4.4758 -1.97887e-05 5.1958 -1.97887e-05C5.9158 -1.97887e-05 6.5878 0.13598 7.2118 0.40798C7.8438 0.67198 8.3958 1.04398 8.8678 1.52398C9.3478 1.99598 9.7198 2.54798 9.9838 3.17998C10.2558 3.80398 10.3918 4.47598 10.3918 5.19598C10.3918 5.91598 10.2558 6.59198 9.9838 7.22398C9.7198 7.84798 9.3478 8.39998 8.8678 8.87998C8.3958 9.35198 7.8438 9.71998 7.2118 9.98398C6.5878 10.256 5.9158 10.392 5.1958 10.392ZM5.1958 9.32398C5.7718 9.32398 6.3078 9.21998 6.8038 9.01198C7.2998 8.79598 7.7358 8.49998 8.1118 8.12398C8.4958 7.73998 8.7918 7.29998 8.9998 6.80398C9.2158 6.29998 9.3238 5.76398 9.3238 5.19598C9.3238 4.61998 9.2158 4.08398 8.9998 3.58798C8.7918 3.09198 8.4958 2.65598 8.1118 2.27998C7.7358 1.89598 7.2958 1.59998 6.7918 1.39198C6.2958 1.17598 5.7638 1.06798 5.1958 1.06798C4.6198 1.06798 4.0838 1.17598 3.5878 1.39198C3.0918 1.59998 2.6518 1.89598 2.2678 2.27998C1.8918 2.65598 1.5958 3.09598 1.3798 3.59998C1.1718 4.09598 1.0678 4.62798 1.0678 5.19598C1.0678 5.77198 1.1718 6.30798 1.3798 6.80398C1.5958 7.29998 1.8918 7.73998 2.2678 8.12398C2.6518 8.49998 3.0918 8.79598 3.5878 9.01198C4.0918 9.21998 4.6278 9.32398 5.1958 9.32398Z" fill="#0F172B"/>
</svg>
