<svg width="40" height="40" viewBox="0 0 40 40" fill="none" xmlns="http://www.w3.org/2000/svg">
<g clip-path="url(#clip0_12_32850)">
<path d="M37.5 22.5H32.5C31.1187 22.5 30 21.3813 30 20C30 18.6187 31.1187 17.5 32.5 17.5H37.5C38.8812 17.5 40 18.6187 40 20C40 21.3813 38.8812 22.5 37.5 22.5ZM30.605 12.93C29.6287 13.9062 28.0462 13.9062 27.07 12.93C26.0938 11.9537 26.0938 10.3713 27.07 9.395L30.605 5.86C31.5812 4.88375 33.1637 4.88375 34.14 5.86C35.1162 6.83625 35.1162 8.41875 34.14 9.395L30.605 12.93ZM20 40C18.6187 40 17.5 38.8812 17.5 37.5V32.5C17.5 31.1187 18.6187 30 20 30C21.3813 30 22.5 31.1187 22.5 32.5V37.5C22.5 38.8812 21.3813 40 20 40ZM20 10C18.6187 10 17.5 8.8825 17.5 7.5V2.5C17.5 1.11875 18.6187 0 20 0C21.3813 0 22.5 1.1175 22.5 2.5V7.5C22.5 8.8825 21.3813 10 20 10ZM9.395 34.1413C8.41875 35.1175 6.83625 35.1175 5.86 34.1413C4.88375 33.1675 4.88375 31.5825 5.86 30.6063L9.395 27.0712C10.3713 26.095 11.9537 26.095 12.93 27.0712C13.9062 28.0475 13.9062 29.63 12.93 30.6063L9.395 34.1413ZM9.395 12.93L5.86 9.395C4.88375 8.41875 4.88375 6.83625 5.86 5.86C6.83625 4.88375 8.41875 4.88375 9.395 5.86L12.93 9.395C13.9062 10.3713 13.9062 11.9537 12.93 12.93C11.9537 13.9062 10.3713 13.9062 9.395 12.93ZM10 20C10 21.3813 8.8825 22.5 7.5 22.5H2.5C1.11875 22.5 0 21.3813 0 20C0 18.6187 1.1175 17.5 2.5 17.5H7.5C8.8825 17.5 10 18.6187 10 20ZM30.605 27.07L34.14 30.605C35.1162 31.5812 35.1162 33.1663 34.14 34.14C33.1637 35.1162 31.5812 35.1162 30.605 34.14L27.07 30.605C26.0938 29.6287 26.0938 28.0462 27.07 27.07C28.0462 26.0938 29.6287 26.0938 30.605 27.07Z" fill="#90A1B9"/>
<path d="M20 40C18.6187 40 17.5 38.8812 17.5 37.5V32.5C17.5 31.1187 18.6187 30 20 30C21.3813 30 22.5 31.1187 22.5 32.5V37.5C22.5 38.8812 21.3813 40 20 40ZM9.395 34.1412C8.41875 35.1175 6.83625 35.1175 5.86 34.1412C4.88375 33.1675 4.88375 31.5825 5.86 30.6062L9.395 27.0712C10.3713 26.095 11.9537 26.095 12.93 27.0712C13.9062 28.0475 13.9062 29.63 12.93 30.6062L9.395 34.1412ZM9.395 12.93L5.86 9.39499C4.88375 8.41874 4.88375 6.83625 5.86 5.86C6.83625 4.88375 8.41875 4.88375 9.395 5.86L12.93 9.39499C13.9062 10.3712 13.9062 11.9537 12.93 12.93C11.9537 13.9062 10.3713 13.9062 9.395 12.93ZM10 20C10 21.3812 8.8825 22.5 7.5 22.5H2.5C1.11875 22.5 0 21.3812 0 20C0 18.6187 1.1175 17.5 2.5 17.5H7.5C8.8825 17.5 10 18.6187 10 20ZM30.605 27.07L34.14 30.605C35.1162 31.5812 35.1162 33.1662 34.14 34.14C33.1637 35.1162 31.5812 35.1162 30.605 34.14L27.07 30.605C26.0938 29.6287 26.0938 28.0462 27.07 27.07C28.0462 26.0937 29.6287 26.0937 30.605 27.07Z" fill="#CAD5E2"/>
</g>
<defs>
<clipPath id="clip0_12_32850">
<rect width="40" height="40" fill="white"/>
</clipPath>
</defs>
</svg>
